<svg xmlns="http://www.w3.org/2000/svg" viewBox="0 0 566.93 566.93"><defs><style>.cls-1{fill:none;stroke:#172344;stroke-linecap:round;stroke-miterlimit:16;stroke-width:16px;}</style></defs><g id="attraction"><path class="cls-1" d="M96.82,121.56c-14.32,26.17-29.65,72.88-18,143.9"/><path class="cls-1" d="M96.82,323.46l187,230,168-210s113.43-149.71-30-280C313.23-35.18,187,32.1,147,59.72"/><line class="cls-1" x1="267.32" y1="477.9" x2="283.82" y2="496.46"/><path class="cls-1" d="M452.82,219.46a166.83,166.83,0,1,0-10.44,58.26"/><circle class="cls-1" cx="282.82" cy="222.46" r="45"/><polygon class="cls-1" points="167.82 140.47 237.82 140.47 250.82 117.47 315.82 117.47 327.82 140.47 399.82 140.47 399.82 304.46 167.82 304.46 167.82 140.47"/><line class="cls-1" x1="167.82" y1="184.27" x2="257.82" y2="184.27"/><line class="cls-1" x1="304.92" y1="183.27" x2="396.82" y2="184.27"/><line class="cls-1" x1="167.82" y1="260.27" x2="257.82" y2="260.27"/><line class="cls-1" x1="309.92" y1="259.27" x2="396.82" y2="260.27"/></g></svg>