<svg xmlns="http://www.w3.org/2000/svg" viewBox="0 0 566.93 566.93"><defs><style>.cls-1{fill:none;stroke:#172344;stroke-linecap:round;stroke-miterlimit:16;stroke-width:16px;}</style></defs><g id="hotel"><rect class="cls-1" x="197.82" y="134.46" width="286" height="37" rx="18.5"/><path class="cls-1" d="M148.82,156.46s-55,20-64-24c-11.65-56.95,134-218,262-45"/><path class="cls-1" d="M297.76,171.46s-3.94,34-34.94,53-81-7-81-7l-47.22.85a53.42,53.42,0,0,0-32.45,11.43c-8.82,7-17,18.22-18.33,35.72-3,40,0,284,0,284h281v-209"/><path class="cls-1" d="M297.94,171.46c-7.53,34.37-36.74,60-71.62,60-40.59,0-73.5-34.7-73.5-77.5s32.91-77.5,73.5-77.5c34.2,0,62.95,24.64,71.16,58H216.32a18.5,18.5,0,0,0,0,37Z"/><line class="cls-1" x1="364.82" y1="171.46" x2="364.82" y2="294.46"/><line class="cls-1" x1="152.82" y1="459.46" x2="292.82" y2="459.46"/><line class="cls-1" x1="152.82" y1="505.46" x2="292.82" y2="505.46"/><path class="cls-1" d="M164.65,294.46a79,79,0,1,1-17.83,50q0-3.68.33-7.28"/></g></svg>