<svg xmlns="http://www.w3.org/2000/svg" viewBox="0 0 566.93 566.93"><defs><style>.cls-1{fill:none;stroke:#172344;stroke-linecap:round;stroke-miterlimit:16;stroke-width:16px;}</style></defs><g id="restaurant"><path class="cls-1" d="M70.84,221A215.67,215.67,0,0,1,128.6,115.22"/><path class="cls-1" d="M156,91.87A215,215,0,0,1,281.82,51.46c103.33,0,189.71,72.56,211,169.5h.78"/><path class="cls-1" d="M405,221h97.65a19.18,19.18,0,0,1,19.18,19.18v6.64A19.18,19.18,0,0,1,502.64,266H62a19.18,19.18,0,0,1-19.18-19.18v-6.64A19.18,19.18,0,0,1,62,221H352.9"/><path class="cls-1" d="M283.32,7.46h0A25.5,25.5,0,0,1,308.82,33v15.5a0,0,0,0,1,0,0h-51a0,0,0,0,1,0,0V33A25.5,25.5,0,0,1,283.32,7.46Z"/><rect class="cls-1" x="75.63" y="468.71" width="137.89" height="53" rx="11.21" transform="translate(392.51 42.82) rotate(45)"/><rect class="cls-1" x="105.82" y="468.46" width="35" height="12" rx="6" transform="translate(371.62 51.77) rotate(45)"/><path class="cls-1" d="M128.6,441.77s-1.78-45.31,16.22-64.31,28.91-112,22-111.5,33-.5,37,5.5,9,17,11,42,11,66,24,70,55-13,86-49,40.32-69,55.66-68.5,26.34-.5,28.34,6.5-32,77-55,104-70,73-70,73"/><line class="cls-1" x1="257.82" y1="467.46" x2="198.44" y2="508.61"/><path class="cls-1" d="M346,266s-22.19,21.5-37.19,41.5-58,56-81,57"/></g></svg>